<svg xmlns="http://www.w3.org/2000/svg" width="368" height="741"><path d="M 0 60.081 C 0 26.899 26.718 0 59.676 0 L 308.324 0 C 341.282 0 368 26.899 368 60.081 L 368 680.919 C 368 714.101 341.282 741 308.324 741 L 59.676 741 C 26.718 741 0 714.101 0 680.919 Z M 22.378 678.416 C 22.378 700.537 40.19 718.47 62.162 718.47 L 305.838 718.47 C 327.81 718.47 345.622 700.537 345.622 678.416 L 345.622 62.584 C 345.622 40.463 327.81 22.53 305.838 22.53 L 273.514 22.53 L 273.514 25.034 C 273.514 36.094 264.608 45.061 253.622 45.061 L 114.378 45.061 C 103.392 45.061 94.486 36.094 94.486 25.034 L 94.486 22.53 L 62.162 22.53 C 40.19 22.53 22.378 40.463 22.378 62.584 Z" fill="rgba(0, 0, 0, 1.00)"></path></svg>