<svg xmlns="http://www.w3.org/2000/svg" width="368" height="741"><path d="M 0 60.081 C 0 26.899 26.718 0 59.676 0 L 308.324 0 C 341.282 0 368 26.899 368 60.081 L 368 680.919 C 368 714.101 341.282 741 308.324 741 L 59.676 741 C 26.718 741 0 714.101 0 680.919 Z M 22.378 678.416 C 22.378 700.537 40.19 718.47 62.162 718.47 L 305.838 718.47 C 327.81 718.47 345.622 700.537 345.622 678.416 L 345.622 62.584 C 345.622 40.463 327.81 22.53 305.838 22.53 L 280.515 22.53 C 279.008 22.682 274.5 23.587 274.5 29 C 274.5 35.5 272.5 49 256.5 49 C 241.379 49 189.64 49 184 49 C 184 49 183.828 49 183.5 49 C 177.86 49 126.121 49 111 49 C 95 49 93 35.5 93 29 C 93 23.587 88.492 22.682 86.985 22.53 L 62.162 22.53 C 40.19 22.53 22.378 40.463 22.378 62.584 Z" fill="hsl(0, 0%, 0%)"></path></svg>